<?xml version="1.0" standalone="no"?>
<!DOCTYPE svg PUBLIC "-//W3C//DTD SVG 20010904//EN"
 "http://www.w3.org/TR/2001/REC-SVG-20010904/DTD/svg10.dtd">
<svg version="1.0" xmlns="http://www.w3.org/2000/svg"
 width="200.000000pt" height="200.000000pt" viewBox="0 0 200.000000 200.000000"
 preserveAspectRatio="xMidYMid meet">

<g transform="translate(0.000000,200.000000) scale(0.100000,-0.100000)"
fill="#ffffff" stroke="none">
<path d="M846 1889 c-91 -13 -248 -72 -338 -125 -154 -92 -301 -262 -369 -426
-45 -109 -59 -173 -66 -293 -13 -255 68 -479 241 -662 203 -215 485 -321 774
-292 123 13 204 35 311 85 259 122 443 346 508 620 26 112 23 310 -6 419 -122
457 -571 745 -1055 674z m150 -183 c11 -8 26 -34 33 -57 l13 -42 42 47 c24 25
48 46 54 46 25 0 42 -33 42 -83 0 -71 30 -121 68 -113 92 17 128 17 144 -1 11
-12 13 -25 8 -39 -9 -24 -28 -28 -193 -40 l-87 -6 30 -28 c39 -37 41 -80 4
-109 -41 -33 -89 -28 -130 13 l-34 34 -29 -29 c-43 -42 -112 -37 -148 10 -15
20 -17 73 -2 88 7 7 -2 12 -32 17 -75 12 -128 41 -144 79 -8 19 -12 43 -9 54
5 18 9 20 40 10 19 -6 34 -17 34 -24 0 -14 56 -43 82 -43 7 0 29 32 48 71 41
84 72 129 103 146 29 16 38 16 63 -1z m-494 -563 l3 -118 66 -6 c88 -7 149
-43 178 -102 45 -92 14 -201 -69 -247 -40 -22 -60 -25 -177 -28 l-133 -4 0
311 0 311 65 0 64 0 3 -117z m163 94 c11 -6 43 -30 71 -54 28 -23 58 -43 67
-43 8 0 26 14 39 31 62 82 99 99 140 62 17 -15 19 -15 38 2 28 26 63 13 119
-45 27 -28 53 -50 59 -50 5 0 26 22 46 50 37 52 61 64 116 58 62 -6 67 -69 7
-76 -18 -2 -37 -18 -59 -49 -34 -47 -72 -73 -108 -73 -31 0 -95 36 -119 66
-20 25 -22 26 -39 10 -25 -21 -55 -20 -76 3 -17 19 -19 19 -59 -24 -44 -45
-93 -63 -141 -51 -14 3 -51 28 -82 56 -31 27 -65 52 -75 55 -15 5 -19 16 -19
51 0 43 1 44 28 38 15 -4 36 -11 47 -17z m902 -221 c75 -35 107 -87 111 -182
3 -60 0 -79 -17 -111 -31 -54 -81 -86 -146 -91 -80 -7 -121 5 -166 45 -49 44
-65 74 -74 134 -24 163 137 277 292 205z m-427 -11 c40 -21 60 -53 60 -98 0
-38 -27 -78 -61 -89 -11 -4 -5 -19 26 -64 22 -32 48 -71 58 -86 l19 -28 -76 0
-76 0 -42 83 c-24 45 -44 87 -45 92 -2 6 12 19 30 30 59 37 39 125 -28 125
l-25 0 0 -165 0 -165 -60 0 -60 0 0 190 0 190 125 0 c92 0 134 -4 155 -15z
m-282 -441 c28 -19 30 -69 3 -86 -19 -12 -19 -13 5 -35 29 -27 31 -56 4 -83
-17 -17 -33 -20 -110 -20 l-90 0 0 120 0 120 83 0 c59 0 89 -5 105 -16z m243
-88 c57 -147 56 -136 12 -136 -35 0 -40 3 -52 35 -11 33 -15 35 -56 35 -41 0
-44 -2 -55 -35 -8 -23 -18 -35 -30 -35 -17 0 -15 11 23 120 l42 121 39 -3 39
-3 38 -99z m273 83 c16 -13 26 -30 26 -46 0 -29 -25 -63 -47 -63 -10 0 -6 -16
17 -55 l31 -55 -40 0 c-40 0 -42 2 -71 59 l-29 59 29 11 c36 12 46 32 30 60
-7 14 -21 21 -40 21 l-30 0 0 -105 0 -105 -35 0 -35 0 0 120 0 120 84 0 c69 0
88 -4 110 -21z"/>
<path d="M924 1599 c-26 -41 -54 -101 -54 -115 0 -6 261 3 267 10 2 2 -18 64
-24 75 -1 2 -16 -8 -33 -23 -57 -47 -97 -31 -107 44 -3 22 -9 43 -14 46 -5 2
-20 -14 -35 -37z"/>
<path d="M966 1385 c20 -31 24 -31 47 0 l18 25 -41 0 -40 0 16 -25z"/>
<path d="M860 1393 c-34 -13 -39 -44 -10 -73 24 -24 63 -26 84 -4 20 20 20 27
-1 52 -20 23 -50 33 -73 25z m45 -42 c7 -12 -12 -24 -25 -16 -11 7 -4 25 10
25 5 0 11 -4 15 -9z"/>
<path d="M1060 1383 c-34 -13 -39 -44 -10 -73 24 -24 63 -26 84 -4 20 20 20
27 -1 52 -20 23 -50 33 -73 25z m44 -42 c3 -4 3 -11 0 -14 -8 -8 -34 3 -34 14
0 11 27 12 34 0z"/>
<path d="M500 835 l0 -135 29 0 c40 0 79 34 91 82 11 40 6 108 -11 140 -12 22
-60 48 -89 48 -19 0 -20 -6 -20 -135z"/>
<path d="M1440 965 c-17 -21 -27 -117 -19 -189 8 -70 33 -102 72 -92 34 8 47
50 47 148 0 103 -18 148 -58 148 -16 0 -35 -7 -42 -15z"/>
<path d="M750 516 c0 -29 4 -36 19 -36 10 0 24 7 32 16 16 20 1 48 -30 52 -18
3 -21 -1 -21 -32z"/>
<path d="M750 410 c0 -41 9 -47 44 -34 34 13 12 74 -26 74 -14 0 -18 -8 -18
-40z"/>
<path d="M992 491 c-17 -47 -15 -51 13 -51 28 0 30 11 11 55 l-12 30 -12 -34z"/>
</g>
</svg>
